<svg width="281" height="103" viewBox="0 0 281 103" fill="none" xmlns="http://www.w3.org/2000/svg">
<rect width="281" height="103" rx="30" fill="white"/>
<path d="M89.1562 55.4395C87.8867 55.4395 87.252 55.0781 87.252 54.3555C87.252 53.7891 87.6035 53.5059 88.3066 53.5059L89.7422 53.6523C90.9141 53.6523 91.6953 52.998 92.0859 51.6895C92.4375 50.5762 92.6133 48.584 92.6133 45.7129L92.5254 25.8496C92.5254 23.5254 91.8125 22.2461 90.3867 22.0117C89.9375 21.9531 89.332 21.9238 88.5703 21.9238C87.8281 21.9238 87.457 21.6602 87.457 21.1328C87.457 20.918 87.5254 20.7422 87.6621 20.6055C87.7988 20.4492 88.3945 20.1367 89.4492 19.668C92.3398 18.418 94.4297 17.168 95.7188 15.918C96.3242 15.3125 96.8125 15.0098 97.1836 15.0098C97.5742 15.0098 97.7695 15.2832 97.7695 15.8301C97.7695 16.0645 97.6914 16.4844 97.5352 17.0898C97.3789 17.6758 97.2715 18.1738 97.2129 18.584C97.1738 18.9746 97.1445 19.4727 97.125 20.0781C97.0664 21.1133 97.0371 23.0371 97.0371 25.8496L97.125 45.7129C97.125 48.5645 97.252 50.4395 97.5059 51.3379C97.7793 52.2363 98.1016 52.8516 98.4727 53.1836C98.8438 53.4961 99.3516 53.6523 99.9961 53.6523L101.402 53.5059C102.105 53.5059 102.457 53.7891 102.457 54.3555C102.457 55.0781 101.832 55.4395 100.582 55.4395C99.9375 55.4395 99.2539 55.3809 98.5312 55.2637C97.418 55.0879 96.2363 55 94.9863 55C93.7363 55 92.6035 55.0684 91.5879 55.2051C90.5918 55.3613 89.7812 55.4395 89.1562 55.4395ZM115.289 26.9043C116.891 26.5332 118.678 26.3477 120.65 26.3477C122.623 26.3477 124.537 26.6699 126.393 27.3145C128.248 27.9395 129.85 28.8477 131.197 30.0391C134.049 32.5586 135.475 35.918 135.475 40.1172C135.475 44.5898 133.668 48.3594 130.055 51.4258C127.887 53.2422 125.377 54.5117 122.525 55.2344C121.139 55.5664 119.566 55.7324 117.809 55.7324C114.449 55.7324 111.51 54.8438 108.99 53.0664C107.135 51.7383 106.207 50.5273 106.207 49.4336C106.207 48.9648 106.344 48.5059 106.617 48.0566C107.125 47.2363 107.574 46.8262 107.965 46.8262C108.238 46.8262 108.59 47.2754 109.02 48.1738C109.469 49.0527 109.996 49.8047 110.602 50.4297C111.227 51.0547 111.93 51.582 112.711 52.0117C114.352 52.9297 116.148 53.3887 118.102 53.3887C120.055 53.3887 121.793 53.125 123.316 52.5977C124.859 52.0703 126.188 51.3086 127.301 50.3125C129.684 48.1836 130.875 45.3613 130.875 41.8457C130.875 38.5449 129.879 35.8789 127.887 33.8477C125.738 31.6602 122.916 30.5664 119.42 30.5664C116.295 30.5664 114.254 31.0742 113.297 32.0898C113.121 32.2656 112.916 32.3535 112.682 32.3535C112.33 32.3535 112.154 32.1191 112.154 31.6504C112.154 31.4941 112.164 31.3184 112.184 31.123C112.223 30.9277 112.262 30.6934 112.301 30.4199L114.264 17.5879C114.4 16.7676 114.527 16.2598 114.645 16.0645C114.84 15.6934 115.221 15.5078 115.787 15.5078L124.166 15.7422C127.018 15.7422 128.785 15.5859 129.469 15.2734C129.586 15.2148 129.703 15.1855 129.82 15.1855C130.172 15.1855 130.348 15.4395 130.348 15.9473C130.348 16.7285 130.211 17.5684 129.938 18.4668C129.664 19.3652 129.391 19.8828 129.117 20.0195C128.863 20.1367 128.404 20.1953 127.74 20.1953L116.402 19.8145L115.289 26.9043ZM149.273 40H140.484V37.5098H149.273V28.252H151.764V37.5098H160.553V40H151.764V49.2578H149.273V40Z" fill="black"/>
<rect x="87" y="58" width="165" height="29" rx="5" fill="#92736C"/>
<path d="M94.2988 79.1465C93.8757 79.1465 93.6641 79.026 93.6641 78.7852C93.6641 78.5964 93.7812 78.502 94.0156 78.502L94.4941 78.5508C94.8848 78.5508 95.1484 78.3327 95.2852 77.8965C95.3958 77.5254 95.4512 76.8613 95.4512 75.9043V69.0098C95.4512 68.0527 95.4056 67.4277 95.3145 67.1348C95.2233 66.8353 95.1126 66.6335 94.9824 66.5293C94.8587 66.4186 94.696 66.3633 94.4941 66.3633L94.0156 66.4023C93.7812 66.4023 93.6641 66.3079 93.6641 66.1191C93.6641 65.8783 93.8431 65.7578 94.2012 65.7578C94.5592 65.7578 94.8978 65.7839 95.2168 65.8359C95.5423 65.888 95.9004 65.9141 96.291 65.9141C96.6882 65.9141 97.0365 65.888 97.3359 65.8359C97.6419 65.7839 97.9089 65.7578 98.1367 65.7578C99.5299 65.7578 100.656 66.181 101.516 67.0273C102.297 67.8021 102.688 68.7363 102.688 69.8301C102.688 70.8392 102.297 71.7181 101.516 72.4668C100.747 73.196 99.8685 73.5605 98.8789 73.5605C98.1172 73.5605 97.5964 73.4108 97.3164 73.1113C97.2318 73.0202 97.1895 72.9225 97.1895 72.8184C97.1895 72.7077 97.2188 72.6263 97.2773 72.5742C97.3424 72.5156 97.4206 72.4863 97.5117 72.4863C97.6029 72.4863 97.7298 72.5482 97.8926 72.6719C98.1465 72.8542 98.4622 72.9453 98.8398 72.9453C99.2174 72.9453 99.5365 72.8737 99.7969 72.7305C100.064 72.5807 100.288 72.3724 100.471 72.1055C100.848 71.5521 101.037 70.8066 101.037 69.8691C101.037 68.8145 100.744 67.9746 100.158 67.3496C99.5918 66.7441 98.8561 66.4414 97.9512 66.4414C97.6191 66.4414 97.375 66.487 97.2188 66.5781C97.0625 66.6693 96.9844 66.8255 96.9844 67.0469V75.9043C96.9844 76.8874 97.0267 77.5221 97.1113 77.8086C97.2025 78.0885 97.3099 78.2839 97.4336 78.3945C97.5638 78.4987 97.7331 78.5508 97.9414 78.5508L98.4102 78.502C98.6445 78.502 98.7617 78.5964 98.7617 78.7852C98.7617 79.026 98.5534 79.1465 98.1367 79.1465C97.9219 79.1465 97.694 79.127 97.4531 79.0879C96.6719 78.9642 96.0013 78.9414 95.4414 79.0195C94.888 79.1042 94.5072 79.1465 94.2988 79.1465ZM104.768 79.1465C104.344 79.1465 104.133 79.026 104.133 78.7852C104.133 78.5964 104.25 78.502 104.484 78.502L104.963 78.5508C105.354 78.5508 105.617 78.3327 105.754 77.8965C105.865 77.5254 105.92 76.8613 105.92 75.9043V69.0098C105.92 68.0527 105.874 67.4277 105.783 67.1348C105.692 66.8353 105.581 66.6335 105.451 66.5293C105.327 66.4186 105.165 66.3633 104.963 66.3633L104.484 66.4023C104.25 66.4023 104.133 66.3079 104.133 66.1191C104.133 65.8783 104.312 65.7578 104.67 65.7578C105.028 65.7578 105.367 65.7839 105.686 65.8359C106.011 65.888 106.35 65.9141 106.701 65.9141C107.053 65.9141 107.388 65.888 107.707 65.8359C108.033 65.7839 108.446 65.7578 108.947 65.7578C109.455 65.7578 109.999 65.8392 110.578 66.002C111.158 66.1647 111.646 66.3958 112.043 66.6953C112.87 67.3138 113.283 68.1341 113.283 69.1562C113.283 70.2891 112.818 71.2656 111.887 72.0859C111.587 72.3464 111.255 72.5677 110.891 72.75L114.064 77.3594C114.423 77.8867 114.816 78.2057 115.246 78.3164C115.37 78.349 115.526 78.375 115.715 78.3945C116.047 78.4271 116.213 78.5378 116.213 78.7266C116.213 78.9089 116.034 79 115.676 79H113.801C113.352 79 112.945 78.707 112.58 78.1211L110.119 74.1855C109.898 73.8405 109.686 73.5964 109.484 73.4531C109.283 73.3034 108.97 73.2285 108.547 73.2285C108.13 73.2285 107.766 73.2383 107.453 73.2578V75.9043C107.453 76.8874 107.495 77.5221 107.58 77.8086C107.671 78.0885 107.779 78.2839 107.902 78.3945C108.033 78.4987 108.202 78.5508 108.41 78.5508L108.879 78.502C109.113 78.502 109.23 78.5964 109.23 78.7852C109.23 79.026 109.022 79.1465 108.605 79.1465C108.391 79.1465 108.163 79.127 107.922 79.0879C107.141 78.9642 106.47 78.9414 105.91 79.0195C105.357 79.1042 104.976 79.1465 104.768 79.1465ZM107.453 72.3984C107.876 72.444 108.283 72.4668 108.674 72.4668H109.289C109.921 72.4668 110.454 72.252 110.891 71.8223C111.398 71.321 111.652 70.6374 111.652 69.7715C111.652 68.7298 111.337 67.9062 110.705 67.3008C110.113 66.7279 109.351 66.4414 108.42 66.4414C108.088 66.4414 107.844 66.487 107.688 66.5781C107.531 66.6693 107.453 66.8255 107.453 67.0469V72.3984ZM117.16 72.3887C117.16 71.4056 117.342 70.5039 117.707 69.6836C118.078 68.8568 118.576 68.1471 119.201 67.5547C119.833 66.9557 120.562 66.4935 121.389 66.168C122.215 65.8359 123.107 65.6699 124.064 65.6699C125.021 65.6699 125.91 65.8457 126.73 66.1973C127.551 66.5423 128.254 67.0208 128.84 67.6328C130.07 68.9284 130.686 70.5723 130.686 72.5645C130.686 74.4525 130.051 76.0312 128.781 77.3008C127.486 78.5964 125.839 79.2441 123.84 79.2441C121.887 79.2441 120.279 78.5898 119.016 77.2812C117.779 75.9922 117.16 74.3613 117.16 72.3887ZM118.83 71.832C118.83 72.6784 118.967 73.5117 119.24 74.332C119.52 75.1458 119.914 75.8555 120.422 76.4609C121.509 77.776 122.883 78.4336 124.543 78.4336C125.826 78.4336 126.877 77.9518 127.697 76.9883C128.544 75.9987 128.967 74.6966 128.967 73.082C128.967 71.1745 128.456 69.5924 127.434 68.3359C126.418 67.099 125.132 66.4805 123.576 66.4805C122.294 66.4805 121.19 66.9688 120.266 67.9453C119.309 68.9609 118.83 70.2565 118.83 71.832ZM137.199 66.4023L136.73 66.3633C136.353 66.3633 136.099 66.5521 135.969 66.9297C135.839 67.3008 135.773 67.9941 135.773 69.0098V77.2715C135.773 78.554 135.445 79.612 134.787 80.4453C134.123 81.2786 133.277 81.6953 132.248 81.6953C131.512 81.6953 131.018 81.474 130.764 81.0312C130.686 80.8945 130.646 80.7448 130.646 80.582C130.646 80.4193 130.712 80.2793 130.842 80.1621C130.965 80.0449 131.145 79.9863 131.379 79.9863C131.607 79.9863 131.805 80.0775 131.975 80.2598C132.144 80.4486 132.238 80.709 132.258 81.041C132.336 81.0605 132.46 81.0703 132.629 81.0703C132.798 81.0703 132.984 80.9954 133.186 80.8457C133.387 80.696 133.566 80.4746 133.723 80.1816C134.068 79.5371 134.24 78.6745 134.24 77.5938V69.0098C134.24 67.9811 134.188 67.3268 134.084 67.0469C133.986 66.7604 133.876 66.5749 133.752 66.4902C133.628 66.4056 133.472 66.3633 133.283 66.3633L132.805 66.4023C132.57 66.4023 132.453 66.3079 132.453 66.1191C132.453 65.8783 132.665 65.7578 133.088 65.7578C133.296 65.7578 133.531 65.7773 133.791 65.8164C134.279 65.8815 134.657 65.9141 134.924 65.9141C135.197 65.9141 135.415 65.9076 135.578 65.8945C135.747 65.875 135.904 65.8555 136.047 65.8359C136.438 65.7839 136.73 65.7578 136.926 65.7578C137.342 65.7578 137.551 65.8783 137.551 66.1191C137.551 66.3079 137.434 66.4023 137.199 66.4023ZM139.367 79.1465C139.009 79.1465 138.83 79.026 138.83 78.7852C138.83 78.5964 138.947 78.502 139.182 78.502L139.66 78.5508C140.025 78.5508 140.272 78.3945 140.402 78.082C140.546 77.724 140.617 77.0078 140.617 75.9336V69.0098C140.617 67.9421 140.565 67.2715 140.461 66.998C140.363 66.7181 140.253 66.5423 140.129 66.4707C140.005 66.3991 139.849 66.3633 139.66 66.3633L139.182 66.4023C138.947 66.4023 138.83 66.3079 138.83 66.1191C138.83 65.8783 139.003 65.7578 139.348 65.7578C139.699 65.7578 139.986 65.7676 140.207 65.7871C140.435 65.8001 140.663 65.8164 140.891 65.8359C141.496 65.888 141.971 65.9141 142.316 65.9141C142.668 65.9141 143.039 65.9076 143.43 65.8945C143.82 65.875 144.257 65.8555 144.738 65.8359C146.008 65.7839 146.887 65.7578 147.375 65.7578C147.87 65.7578 148.143 65.7871 148.195 65.8457C148.254 65.9043 148.283 65.9857 148.283 66.0898C148.283 66.1875 148.28 66.2819 148.273 66.373C148.273 66.4642 148.27 66.5651 148.264 66.6758C148.257 66.8255 148.238 67.0501 148.205 67.3496C148.173 67.6426 148.133 67.8411 148.088 67.9453C148.042 68.043 147.977 68.0918 147.893 68.0918C147.808 68.0918 147.749 68.0723 147.717 68.0332C147.684 67.9876 147.639 67.89 147.58 67.7402C147.528 67.584 147.43 67.4375 147.287 67.3008C147.15 67.1576 146.932 67.0404 146.633 66.9492C146.047 66.7734 144.963 66.6855 143.381 66.6855H142.512C142.355 66.6855 142.255 66.7083 142.209 66.7539C142.17 66.7995 142.15 66.9036 142.15 67.0664V71.1777C142.925 71.2689 143.566 71.3145 144.074 71.3145C144.589 71.3145 144.953 71.3112 145.168 71.3047C145.389 71.2982 145.572 71.2786 145.715 71.2461C145.969 71.2005 146.151 71.0866 146.262 70.9043C146.483 70.5592 146.662 70.3867 146.799 70.3867C146.975 70.3867 147.062 70.4779 147.062 70.6602L146.721 72.0469L146.76 72.7891C146.76 73.2578 146.649 73.4922 146.428 73.4922C146.239 73.4922 146.145 73.3685 146.145 73.1211C146.145 72.8672 146.128 72.6784 146.096 72.5547C146.07 72.431 145.988 72.3333 145.852 72.2617C145.643 72.1576 145.135 72.1055 144.328 72.1055C143.521 72.1055 142.795 72.1413 142.15 72.2129V74.5273C142.15 75.9661 142.183 77.1543 142.248 78.0918C142.775 78.209 143.348 78.2676 143.967 78.2676C144.585 78.2676 145.113 78.2513 145.549 78.2188C145.992 78.1862 146.372 78.1211 146.691 78.0234C147.323 77.8346 147.788 77.4733 148.088 76.9395C148.218 76.7051 148.348 76.5879 148.479 76.5879C148.609 76.5879 148.674 76.6823 148.674 76.8711C148.674 76.9492 148.651 77.0501 148.605 77.1738C148.553 77.3431 148.479 77.597 148.381 77.9355C148.283 78.2676 148.208 78.5085 148.156 78.6582C148.104 78.8079 148.046 78.9219 147.98 79C147.883 79.1302 147.691 79.1953 147.404 79.1953C147.118 79.1953 146.841 79.1921 146.574 79.1855C146.307 79.1855 146.027 79.1823 145.734 79.1758C145.396 79.1628 144.872 79.1367 144.162 79.0977C142.391 79.013 141.353 78.9837 141.047 79.0098C140.741 79.0358 140.51 79.0553 140.354 79.0684C140.197 79.0879 140.044 79.1042 139.895 79.1172C139.745 79.1367 139.569 79.1465 139.367 79.1465ZM162.824 68.7363C162.824 68.9902 162.736 69.1172 162.561 69.1172C162.404 69.1172 162.274 68.9609 162.17 68.6484C162.072 68.3294 161.883 68.0299 161.604 67.75C161.324 67.4701 160.988 67.2357 160.598 67.0469C159.784 66.6497 158.908 66.4512 157.971 66.4512C157.04 66.4512 156.232 66.5781 155.549 66.832C154.872 67.0794 154.289 67.4375 153.801 67.9062C152.785 68.9023 152.277 70.2467 152.277 71.9395C152.277 73.8145 152.85 75.3607 153.996 76.5781C155.135 77.7891 156.594 78.3945 158.371 78.3945C160.35 78.3945 161.88 77.4863 162.961 75.6699C163.033 75.5527 163.107 75.4876 163.186 75.4746C163.257 75.4746 163.329 75.5527 163.4 75.709C163.472 75.8652 163.508 76.041 163.508 76.2363C163.508 76.5618 163.231 76.985 162.678 77.5059C162.124 78.0267 161.451 78.4466 160.656 78.7656C159.868 79.0846 158.947 79.2441 157.893 79.2441C156.844 79.2441 155.848 79.0749 154.904 78.7363C153.967 78.3913 153.169 77.9225 152.512 77.3301C151.132 76.0931 150.441 74.5469 150.441 72.6914C150.441 70.5951 151.138 68.9023 152.531 67.6133C153.924 66.3177 155.757 65.6699 158.029 65.6699C159.67 65.6699 161.027 65.888 162.102 66.3242C162.31 66.4154 162.447 66.5033 162.512 66.5879C162.642 66.7702 162.717 67.0436 162.736 67.4082C162.762 67.7663 162.779 68.0137 162.785 68.1504C162.811 68.4694 162.824 68.6647 162.824 68.7363ZM168 79.1465C167.577 79.1465 167.365 79.026 167.365 78.7852C167.365 78.5964 167.482 78.502 167.717 78.502L168.195 78.5508C168.586 78.5508 168.846 78.3327 168.977 77.8965C169.094 77.5254 169.152 76.8613 169.152 75.9043V66.7734H168.889C167.749 66.7734 166.841 66.8906 166.164 67.125C165.695 67.2943 165.376 67.584 165.207 67.9941C165.083 68.2936 164.953 68.4434 164.816 68.4434C164.628 68.4434 164.533 68.3327 164.533 68.1113C164.533 68.0462 164.546 67.9714 164.572 67.8867C164.605 67.8021 164.641 67.7012 164.68 67.584C164.784 67.2715 164.846 66.946 164.865 66.6074C164.885 66.2689 164.921 66.0443 164.973 65.9336C165.031 65.8164 165.109 65.7578 165.207 65.7578C165.305 65.7578 165.393 65.7676 165.471 65.7871C165.549 65.8001 165.663 65.8164 165.812 65.8359C166.203 65.888 166.695 65.9141 167.287 65.9141H173.479C173.96 65.9141 174.309 65.888 174.523 65.8359C174.745 65.7839 174.904 65.7578 175.002 65.7578C175.217 65.7578 175.324 65.8587 175.324 66.0605C175.324 66.1647 175.305 66.2884 175.266 66.4316C175.168 66.7507 175.103 67.0273 175.07 67.2617C175.044 67.4896 175.018 67.6784 174.992 67.8281C174.966 67.9714 174.937 68.0853 174.904 68.1699C174.852 68.3132 174.774 68.3848 174.67 68.3848C174.566 68.3848 174.497 68.349 174.465 68.2773C174.439 68.1992 174.41 68.0527 174.377 67.8379C174.344 67.623 174.289 67.4473 174.211 67.3105C174.133 67.1738 174.029 67.0664 173.898 66.9883C173.671 66.8451 173.299 66.7734 172.785 66.7734H170.686V75.9043C170.686 76.8874 170.728 77.5221 170.812 77.8086C170.904 78.0885 171.011 78.2839 171.135 78.3945C171.265 78.4987 171.434 78.5508 171.643 78.5508L172.111 78.502C172.346 78.502 172.463 78.5964 172.463 78.7852C172.463 79.026 172.255 79.1465 171.838 79.1465C171.623 79.1465 171.395 79.127 171.154 79.0879C170.373 78.9642 169.702 78.9414 169.143 79.0195C168.589 79.1042 168.208 79.1465 168 79.1465ZM183.459 66.0605L183.869 66.002C184.051 66.002 184.152 66.1517 184.172 66.4512C184.191 66.7441 184.217 66.985 184.25 67.1738C184.283 67.3626 184.315 67.5319 184.348 67.6816C184.38 67.8314 184.406 67.9583 184.426 68.0625C184.452 68.1667 184.465 68.2546 184.465 68.3262C184.465 68.3913 184.426 68.4564 184.348 68.5215C184.276 68.5801 184.198 68.6094 184.113 68.6094C183.964 68.6094 183.817 68.4499 183.674 68.1309C183.4 67.5254 183.173 67.1348 182.99 66.959C182.567 66.5814 181.945 66.3926 181.125 66.3926C179.979 66.3926 179.211 66.7344 178.82 67.418C178.697 67.6393 178.635 67.9095 178.635 68.2285C178.635 68.5475 178.71 68.847 178.859 69.127C179.016 69.4069 179.25 69.6901 179.562 69.9766C179.882 70.2565 180.285 70.5592 180.773 70.8848C181.262 71.2103 181.786 71.5651 182.346 71.9492C182.906 72.3333 183.342 72.6816 183.654 72.9941C183.967 73.3001 184.221 73.6061 184.416 73.9121C184.787 74.4915 184.973 75.0547 184.973 75.6016C184.973 76.1484 184.895 76.6367 184.738 77.0664C184.582 77.4896 184.328 77.8607 183.977 78.1797C183.215 78.8893 182.089 79.2441 180.598 79.2441C179.842 79.2441 179.009 79.0781 178.098 78.7461C177.889 78.6745 177.759 78.5931 177.707 78.502C177.648 78.3913 177.596 78.1829 177.551 77.877C177.505 77.571 177.45 77.2943 177.385 77.0469C177.326 76.7995 177.271 76.5781 177.219 76.3828L177.082 75.875C177.043 75.7253 177.023 75.6016 177.023 75.5039C177.023 75.2695 177.111 75.1523 177.287 75.1523C177.521 75.1523 177.691 75.3314 177.795 75.6895C177.977 76.3275 178.14 76.7409 178.283 76.9297C178.837 77.6589 179.478 78.1341 180.207 78.3555C180.422 78.4206 180.708 78.4531 181.066 78.4531C181.431 78.4531 181.786 78.401 182.131 78.2969C182.482 78.1862 182.772 78.0397 183 77.8574C183.43 77.5059 183.645 77.0794 183.645 76.5781C183.645 76.0703 183.482 75.6146 183.156 75.2109C182.837 74.8008 182.45 74.446 181.994 74.1465C181.545 73.8405 181.206 73.6159 180.979 73.4727C180.757 73.3294 180.549 73.1927 180.354 73.0625C178.706 71.9622 177.733 70.8685 177.434 69.7812C177.355 69.4948 177.316 69.166 177.316 68.7949C177.316 68.4238 177.408 68.043 177.59 67.6523C177.772 67.2617 178.033 66.9199 178.371 66.627C179.12 65.9889 180.087 65.6699 181.271 65.6699C181.812 65.6699 182.245 65.7253 182.57 65.8359C183.026 65.9857 183.322 66.0605 183.459 66.0605ZM192.268 79.1465C191.844 79.1465 191.633 79.026 191.633 78.7852C191.633 78.5964 191.75 78.502 191.984 78.502L192.463 78.5508C192.854 78.5508 193.117 78.3327 193.254 77.8965C193.365 77.5254 193.42 76.8613 193.42 75.9043V69.0098C193.42 68.0527 193.374 67.4277 193.283 67.1348C193.192 66.8353 193.081 66.6335 192.951 66.5293C192.827 66.4186 192.665 66.3633 192.463 66.3633L191.984 66.4023C191.75 66.4023 191.633 66.3079 191.633 66.1191C191.633 65.8783 191.812 65.7578 192.17 65.7578C192.528 65.7578 192.84 65.7839 193.107 65.8359C193.374 65.888 193.638 65.9141 193.898 65.9141C194.589 65.9141 195.161 65.8815 195.617 65.8164C196.307 65.7188 197.098 65.6699 197.99 65.6699C198.889 65.6699 199.781 65.8294 200.666 66.1484C201.558 66.4674 202.323 66.9199 202.961 67.5059C204.322 68.7493 205.002 70.3835 205.002 72.4082C205.002 74.3288 204.335 75.9271 203 77.2031C201.62 78.5312 199.81 79.1953 197.57 79.1953C197.03 79.1953 196.506 79.1725 195.998 79.127C195.054 79.0423 194.37 79 193.947 79L192.268 79.1465ZM194.953 74.498C194.953 75.6569 194.982 76.7344 195.041 77.7305C195.907 78.1797 196.88 78.4043 197.961 78.4043C198.749 78.4043 199.566 78.2188 200.412 77.8477C201.753 77.2617 202.629 76.2135 203.039 74.7031C203.189 74.1693 203.264 73.4792 203.264 72.6328C203.264 71.7799 203.117 70.9564 202.824 70.1621C202.538 69.3613 202.134 68.6875 201.613 68.1406C200.552 67.0143 199.123 66.4512 197.326 66.4512C196.044 66.4512 195.308 66.6204 195.119 66.959C195.021 67.1413 194.969 67.3496 194.963 67.584C194.956 67.8118 194.953 68.0365 194.953 68.2578V74.498ZM206.965 72.3887C206.965 71.4056 207.147 70.5039 207.512 69.6836C207.883 68.8568 208.381 68.1471 209.006 67.5547C209.637 66.9557 210.367 66.4935 211.193 66.168C212.02 65.8359 212.912 65.6699 213.869 65.6699C214.826 65.6699 215.715 65.8457 216.535 66.1973C217.355 66.5423 218.059 67.0208 218.645 67.6328C219.875 68.9284 220.49 70.5723 220.49 72.5645C220.49 74.4525 219.855 76.0312 218.586 77.3008C217.29 78.5964 215.643 79.2441 213.645 79.2441C211.691 79.2441 210.083 78.5898 208.82 77.2812C207.583 75.9922 206.965 74.3613 206.965 72.3887ZM208.635 71.832C208.635 72.6784 208.771 73.5117 209.045 74.332C209.325 75.1458 209.719 75.8555 210.227 76.4609C211.314 77.776 212.688 78.4336 214.348 78.4336C215.63 78.4336 216.682 77.9518 217.502 76.9883C218.348 75.9987 218.771 74.6966 218.771 73.082C218.771 71.1745 218.26 69.5924 217.238 68.3359C216.223 67.099 214.937 66.4805 213.381 66.4805C212.098 66.4805 210.995 66.9688 210.07 67.9453C209.113 68.9609 208.635 70.2565 208.635 71.832ZM222.805 79.1465C222.382 79.1465 222.17 79.026 222.17 78.7852C222.17 78.5964 222.287 78.502 222.521 78.502L223 78.5508C223.391 78.5508 223.651 78.3327 223.781 77.8965C223.898 77.5254 223.957 76.8613 223.957 75.9043V69.0293C223.957 68.0658 223.911 67.4408 223.82 67.1543C223.729 66.8613 223.618 66.6628 223.488 66.5586C223.365 66.4479 223.202 66.3926 223 66.3926L222.521 66.4414C222.287 66.4414 222.17 66.3438 222.17 66.1484C222.17 65.8945 222.382 65.7676 222.805 65.7676L224.084 65.9141C224.357 65.9141 224.602 65.8945 224.816 65.8555L233.811 76.3145V69.0098C233.811 68.0592 233.758 67.4342 233.654 67.1348C233.557 66.8353 233.443 66.6335 233.312 66.5293C233.182 66.4186 233.013 66.3633 232.805 66.3633L232.326 66.4023C232.092 66.4023 231.975 66.3079 231.975 66.1191C231.975 65.8783 232.186 65.7578 232.609 65.7578C232.772 65.7578 232.99 65.7806 233.264 65.8262C233.609 65.8848 233.921 65.9141 234.201 65.9141C234.481 65.9141 234.755 65.888 235.021 65.8359C235.288 65.7839 235.601 65.7578 235.959 65.7578C236.317 65.7578 236.496 65.8783 236.496 66.1191C236.496 66.3079 236.379 66.4023 236.145 66.4023L235.666 66.3633C235.269 66.3633 235.005 66.5814 234.875 67.0176C234.764 67.3626 234.709 68.0267 234.709 69.0098V78.873C234.709 79.0944 234.689 79.2409 234.65 79.3125C234.611 79.3841 234.549 79.4199 234.465 79.4199C234.348 79.4199 234.162 79.2832 233.908 79.0098L224.904 68.5801V75.9043C224.904 76.8874 224.947 77.5221 225.031 77.8086C225.122 78.0885 225.23 78.2839 225.354 78.3945C225.484 78.4987 225.653 78.5508 225.861 78.5508L226.33 78.502C226.564 78.502 226.682 78.5964 226.682 78.7852C226.682 79.026 226.493 79.1465 226.115 79.1465C225.744 79.1465 225.412 79.1204 225.119 79.0684C224.833 79.0228 224.553 79 224.279 79C224.006 79 223.736 79.0228 223.469 79.0684C223.208 79.1204 222.987 79.1465 222.805 79.1465ZM237.844 79.1465C237.486 79.1465 237.307 79.026 237.307 78.7852C237.307 78.5964 237.424 78.502 237.658 78.502L238.137 78.5508C238.501 78.5508 238.749 78.3945 238.879 78.082C239.022 77.724 239.094 77.0078 239.094 75.9336V69.0098C239.094 67.9421 239.042 67.2715 238.938 66.998C238.84 66.7181 238.729 66.5423 238.605 66.4707C238.482 66.3991 238.326 66.3633 238.137 66.3633L237.658 66.4023C237.424 66.4023 237.307 66.3079 237.307 66.1191C237.307 65.8783 237.479 65.7578 237.824 65.7578C238.176 65.7578 238.462 65.7676 238.684 65.7871C238.911 65.8001 239.139 65.8164 239.367 65.8359C239.973 65.888 240.448 65.9141 240.793 65.9141C241.145 65.9141 241.516 65.9076 241.906 65.8945C242.297 65.875 242.733 65.8555 243.215 65.8359C244.484 65.7839 245.363 65.7578 245.852 65.7578C246.346 65.7578 246.62 65.7871 246.672 65.8457C246.73 65.9043 246.76 65.9857 246.76 66.0898C246.76 66.1875 246.757 66.2819 246.75 66.373C246.75 66.4642 246.747 66.5651 246.74 66.6758C246.734 66.8255 246.714 67.0501 246.682 67.3496C246.649 67.6426 246.61 67.8411 246.564 67.9453C246.519 68.043 246.454 68.0918 246.369 68.0918C246.285 68.0918 246.226 68.0723 246.193 68.0332C246.161 67.9876 246.115 67.89 246.057 67.7402C246.005 67.584 245.907 67.4375 245.764 67.3008C245.627 67.1576 245.409 67.0404 245.109 66.9492C244.523 66.7734 243.439 66.6855 241.857 66.6855H240.988C240.832 66.6855 240.731 66.7083 240.686 66.7539C240.646 66.7995 240.627 66.9036 240.627 67.0664V71.1777C241.402 71.2689 242.043 71.3145 242.551 71.3145C243.065 71.3145 243.43 71.3112 243.645 71.3047C243.866 71.2982 244.048 71.2786 244.191 71.2461C244.445 71.2005 244.628 71.0866 244.738 70.9043C244.96 70.5592 245.139 70.3867 245.275 70.3867C245.451 70.3867 245.539 70.4779 245.539 70.6602L245.197 72.0469L245.236 72.7891C245.236 73.2578 245.126 73.4922 244.904 73.4922C244.715 73.4922 244.621 73.3685 244.621 73.1211C244.621 72.8672 244.605 72.6784 244.572 72.5547C244.546 72.431 244.465 72.3333 244.328 72.2617C244.12 72.1576 243.612 72.1055 242.805 72.1055C241.997 72.1055 241.271 72.1413 240.627 72.2129V74.5273C240.627 75.9661 240.66 77.1543 240.725 78.0918C241.252 78.209 241.825 78.2676 242.443 78.2676C243.062 78.2676 243.589 78.2513 244.025 78.2188C244.468 78.1862 244.849 78.1211 245.168 78.0234C245.799 77.8346 246.265 77.4733 246.564 76.9395C246.695 76.7051 246.825 76.5879 246.955 76.5879C247.085 76.5879 247.15 76.6823 247.15 76.8711C247.15 76.9492 247.128 77.0501 247.082 77.1738C247.03 77.3431 246.955 77.597 246.857 77.9355C246.76 78.2676 246.685 78.5085 246.633 78.6582C246.581 78.8079 246.522 78.9219 246.457 79C246.359 79.1302 246.167 79.1953 245.881 79.1953C245.594 79.1953 245.318 79.1921 245.051 79.1855C244.784 79.1855 244.504 79.1823 244.211 79.1758C243.872 79.1628 243.348 79.1367 242.639 79.0977C240.868 79.013 239.829 78.9837 239.523 79.0098C239.217 79.0358 238.986 79.0553 238.83 79.0684C238.674 79.0879 238.521 79.1042 238.371 79.1172C238.221 79.1367 238.046 79.1465 237.844 79.1465Z" fill="white"/>
<rect x="29" y="14" width="51" height="73" rx="5" fill="#92736C"/>
<path d="M75.8386 27.6672L54.4636 57.6672L44.964 44.3328" stroke="#344054" stroke-linecap="round" stroke-linejoin="round"/>
<path d="M75.8386 47.6672V77.6672C75.8386 78.5511 75.5885 79.3988 75.1431 80.0238C74.6978 80.6489 74.0938 81 73.464 81H35.4633C34.8335 81 34.2295 80.6489 33.7841 80.0238C33.3388 79.3988 33.0886 78.5511 33.0886 77.6672V24.3328C33.0886 23.4489 33.3388 22.6012 33.7841 21.9762C34.2295 21.3511 34.8335 21 35.4633 21H63.9633" stroke="white" stroke-linecap="round" stroke-linejoin="round"/>
</svg>
