<svg xmlns="http://www.w3.org/2000/svg" width="512" height="512" style="shape-rendering:geometricPrecision;text-rendering:geometricPrecision;image-rendering:optimizeQuality;fill-rule:evenodd;clip-rule:evenodd"><path fill="#16152b" d="M116.5 87.5q-1.265 5.743-7 7.5-39.168-5.065-52.5 31.5-4.608 24.176 13.5 40.5l117 77q31.51 18.42 68 17.5 39.465.259 73-20.5l112-74q18.108-16.324 13.5-40.5-6.365-22.561-28.5-29.5a4937 4937 0 0 0-170-1.5q-39.503.25-79-.5-4.05-2.786-5-7.5-.346-4.926 4-7.5 125.5-1 251 0 38.505 10.011 44.5 49.5 1 83 0 166-2.572 4.346-7.5 4-5.28-1.024-7.5-6l-1-118A7121 7121 0 0 1 339.5 253a208 208 0 0 1-24 13A8095 8095 0 0 1 423 372.5q1.19 4.861-1.5 9-5.328 3.552-11 .5a8620 8620 0 0 1-111-110 901 901 0 0 1-26 5q-14.991.75-30 .5a208 208 0 0 1-32-5.5 8620 8620 0 0 1-111 110q-5.672 3.052-11-.5-2.69-4.139-1.5-9A8095 8095 0 0 1 195.5 266a208 208 0 0 1-24-13A7123 7123 0 0 1 56 175.5a10816 10816 0 0 0 0 208q3.09 11.697 11.5 20 7.91 9.112 20 11.5 83.998.75 168 .5 83.501.25 167-.5 12.361-2.674 21-11.5 8.826-8.639 11.5-21l1-22q2.56-4.635 7.5-6 5.344.188 7.5 5 6.775 37.187-21.5 61.5a70.8 70.8 0 0 1-23 10q-171 1-342 0-36.25-8.25-44.5-44.5-1-128.5 0-257Q52.655 71.896 111.5 80q4.812 2.155 5 7.5" style="opacity:.997"/><path fill="#17152b" d="M156.5 87.5q-3.029 9.647-13.5 8-9.228 1.025-11.5-8 1.431-10.387 12-8 10.781-2.38 13 8" style="opacity:.98"/><path fill="#fe9733" d="M116.5 87.5h15q2.272 9.025 11.5 8 10.471 1.647 13.5-8h15q.95 4.714 5 7.5 39.497.75 79 .5v166q-36.49.92-68-17.5l-117-77Q52.392 150.676 57 126.5 70.332 89.935 109.5 95q5.735-1.757 7-7.5" style="opacity:1"/><path fill="#cb7929" d="M255.5 95.5a4937 4937 0 0 1 170 1.5q22.135 6.939 28.5 29.5 4.608 24.176-13.5 40.5l-112 74q-33.535 20.759-73 20.5z" style="opacity:1"/><path fill="#e5882e" d="M89.5 381.5q-10.5 11.5-22 22-8.41-8.303-11.5-20a10816 10816 0 0 1 0-208A7123 7123 0 0 0 171.5 253a208 208 0 0 0 24 13A8095 8095 0 0 0 88 372.5q-1.19 4.861 1.5 9" style="opacity:1"/><path fill="#b76d25" d="M463.5 299.5v15q-9.411 2.535-8 12.5-1.44 9.894 8 12.5v15q-4.94 1.365-7.5 6l-1 22q-2.674 12.361-11.5 21-11.5-10.5-22-22 2.69-4.139 1.5-9A8095 8095 0 0 0 315.5 266a208 208 0 0 0 24-13A7121 7121 0 0 0 455 175.5l1 118q2.22 4.976 7.5 6" style="opacity:1"/><path fill="#d8802b" d="M243.5 277.5q5.697 1.475 12 1v137q-84.002.25-168-.5-12.09-2.388-20-11.5 11.5-10.5 22-22 5.328 3.552 11 .5a8620 8620 0 0 0 111-110 208 208 0 0 0 32 5.5" style="opacity:1"/><path fill="#ad6622" d="M421.5 381.5q10.5 11.5 22 22-8.639 8.826-21 11.5-83.499.75-167 .5v-137q-6.303.475-12-1 15.009.25 30-.5a901 901 0 0 0 26-5 8620 8620 0 0 0 111 110q5.672 3.052 11-.5" style="opacity:1"/><path fill="#16152a" d="M463.5 314.5q10.38 2.219 8 13 2.387 10.569-8 12-9.44-2.606-8-12.5-1.411-9.965 8-12.5" style="opacity:.977"/></svg>