<?xml version="1.0" encoding="UTF-8"?>
<svg version="1.1" viewBox="0 0 2000 2000" width="500" height="500" xmlns="http://www.w3.org/2000/svg">
<path transform="translate(0)" d="m0 0h2e3v2e3h-2e3z" fill="#fff"/>
<path transform="translate(873,781)" d="m0 0h535l1 3v113l-1 1h-204l-1 206h-125l-1-205-204-1z"/>
<path transform="translate(752,433)" d="m0 0h34l81 8h44l39-3 44-5h35l13 4 8 6 4 8v11l-3 6-5 4-7 2h-13l-25-1-17 2-13 7-7 7-7 11-6 16-4 19-3 25-2 28-1 30-1 124h-99v-59l-1-92-2-35-3-25-4-16-7-17-8-12-7-6-12-5-5-1h-48l-8-2-5-3-4-7v-11l4-8 8-6z"/>
<path transform="translate(1078,1250)" d="m0 0h125v305h-125z"/>
<path transform="translate(838,1250)" d="m0 0h95l-2 12-7 26-9 25-13 27-11 18-13 18-18 20-11 11-14 11-15 11-17 9-24 10-21 5-25 4-12 1h-19l-24-3-15-4-11-5-11-6-11-9-8-9-6-10-5-15v-18l4-11 7-9 10-7 9-3 6-1h19l11 3 10 6 9 8 7 10 5 10 4 13 3 17 6 1 18 1 10-2 12-5 16-10 11-10 10-13 11-19 11-26 6-19 7-28z"/>
<path transform="translate(841,937)" d="m0 0h99v167h-98l-1-1z"/>
<path transform="translate(699,1132)" d="m0 0 13 2 10 5 8 9 4 8 1 4v16l-5 12-7 8-8 5-11 3h-8l-9-2-9-5-7-7-5-9-2-9 1-13 4-9 6-8 8-6 9-3z" fill="#fff"/>
<path transform="translate(690,1124)" d="m0 0h19l12 4 8 6 5 5 6 9 4 10 1 12-2 12-6 12-7 8-10 6-11 4-11 1-12-2-14-7-8-8-5-8-3-9-1-7v-8l2-10 6-12 7-8 11-7zm9 8-11 2-8 4-8 7-5 8-3 12v7l3 11 6 9 8 7 9 4 6 1h8l13-4 8-6 5-6 5-12v-16l-4-10-6-8-8-6-8-3z"/>
<path transform="translate(832,1124)" d="m0 0h7l2 1v38h48v-38l1-1h8v87l-9 1v-39h-48v38l-1 1h-8l-1-1v-49z"/>
<path transform="translate(1384,1124)" d="m0 0h7l1 3v36h48v-38l1-1h6l2 1 1 41v27l-1 19h-9v-39h-48v38l-1 1h-9v-44l1-43z"/>
<path transform="translate(1316,1124)" d="m0 0h18l10 3 10 6 7 7 3 4-1 4-6 2-8-9-9-5-6-2h-16l-10 4-8 6-6 9-3 11v9l3 9 5 9 8 7 10 4 11 1 12-3 10-6 8-8 5 2 1 3-4 6-7 7-9 5-9 3-13 1-10-2-12-6-10-9-8-16-1-6v-12l3-11 7-12 9-8 12-6z"/>
<path transform="translate(1216,1124)" d="m0 0h30l17 1v8l-1 1h-37v30h34v8l-2 1h-32v30h38v8l-2 1h-46v-87z"/>
<path transform="translate(957,1124)" d="m0 0h44l3 1v8l-1 1h-38l1 29 33 1v9h-34v29l39 1v8l-1 1h-46l-1-1v-86z"/>
<path transform="translate(1065,1123)" d="m0 0h8l11 4 8 6-2 4-2 2-6-1-8-4h-11l-6 4-2 4 1 9 4 5 26 13 5 5 4 6 1 3v13l-6 9-5 4-6 3-5 1h-9l-12-4-8-7-2-3v-6l4-2 4 1 4 6 8 4h14l6-4 3-5v-7l-3-6-7-5-18-8-7-5-5-7-1-3v-11l4-9 7-6z"/>
<path transform="translate(783,1123)" d="m0 0 11 1 10 5 4 3-1 5-2 2-6-1-8-4h-11l-6 4-2 3v8l4 6 10 6 14 6 8 6 5 10 1 8-3 9-7 8-9 4-5 1h-7l-11-3-8-6-4-5v-5l3-3 4 1 6 7 7 3h14l6-4 3-6-1-9-5-5-8-5-17-8-5-4-4-7-1-3v-10l5-10 5-4z"/>
<path transform="translate(620,1124)" d="m0 0h16l1 1v67l-2 8-4 6-5 4-9 3-10-1-6-3-6-7-2-6 2-4 7 1 5 8 5 2 8-1 5-5 2-9v-54h-30l-1-6v-3z"/>
<path transform="translate(1143,1124)" d="m0 0h57v10h-24v21l-1 56-2 1h-7v-78h-23l-1-1v-8z"/>
<path transform="translate(923,1124)" d="m0 0h8l1 7v80l-9 1-1-1v-86z"/>
<path transform="translate(1031,1123)" d="m0 0h8l1 3-12 31-2 2h-5l2-11 6-22z"/>
</svg>
