<?xml version="1.0" encoding="UTF-8"?>
<svg version="1.1" xmlns="http://www.w3.org/2000/svg" width="500" height="500">
<path d="M0 0 C44.55 0 89.1 0 135 0 C135 9.9 135 19.8 135 30 C117.84 30 100.68 30 83 30 C83 46.83 83 63.66 83 81 C72.44 81 61.88 81 51 81 C51 64.17 51 47.34 51 30 C34.17 30 17.34 30 0 30 C0 20.1 0 10.2 0 0 Z " fill="#FEFEFE" transform="translate(218,195)"/>
<path d="M0 0 C0.67353516 0.01417969 1.34707031 0.02835937 2.04101562 0.04296875 C5.37483669 0.13867653 8.57834522 0.42947895 11.88671875 0.890625 C17.63072231 1.65686706 23.40322871 1.51967439 29.1875 1.5 C30.32445312 1.50386719 31.46140625 1.50773437 32.6328125 1.51171875 C38.59669834 1.50480009 44.28546154 1.1849606 50.1875 0.375 C52.76922253 0.26442822 55.35344436 0.20068396 57.9375 0.1875 C59.21109375 0.17332031 60.4846875 0.15914063 61.796875 0.14453125 C64.93549021 0.3578703 66.67017138 0.53753385 69.1875 2.375 C70.125 5.3125 70.125 5.3125 70.1875 8.375 C69.01953125 10.0625 69.01953125 10.0625 67.1875 11.375 C64.734375 11.59765625 64.734375 11.59765625 61.9375 11.4375 C57.15327432 11.31726152 53.61693414 11.52940244 49.1875 13.375 C42.82190703 19.52108976 43.09461389 30.05451686 42.9473877 38.30831909 C42.93381226 39.29712067 42.92023682 40.28592224 42.90625 41.3046875 C42.86848995 43.41927084 42.83072952 45.53385417 42.79296875 47.6484375 C42.73912845 50.96677807 42.68695252 54.28514104 42.63525391 57.60351562 C42.58372154 60.81648792 42.5264433 64.02932089 42.46875 67.2421875 C42.45517456 68.24313446 42.44159912 69.24408142 42.4276123 70.27536011 C42.41089478 71.19366608 42.39417725 72.11197205 42.37695312 73.05810547 C42.35816101 74.27552933 42.35816101 74.27552933 42.33898926 75.51754761 C42.1875 77.375 42.1875 77.375 41.1875 78.375 C39.33380389 78.46237645 37.47682459 78.48198153 35.62109375 78.47265625 C34.49638672 78.46943359 33.37167969 78.46621094 32.21289062 78.46289062 C31.02888672 78.45451172 29.84488281 78.44613281 28.625 78.4375 C27.43712891 78.43298828 26.24925781 78.42847656 25.02539062 78.42382812 C22.07937774 78.41199675 19.13346319 78.39551287 16.1875 78.375 C16.16768066 77.11018799 16.14786133 75.84537598 16.12744141 74.54223633 C16.05062328 69.79140313 15.96203198 65.04084629 15.87011719 60.2902832 C15.83213897 58.24509183 15.79723552 56.19984072 15.765625 54.15454102 C16.22216566 34.06383601 16.22216566 34.06383601 10.1875 15.375 C10.1875 14.715 10.1875 14.055 10.1875 13.375 C4.10028289 11.92442912 -1.51786138 11.17440397 -7.78125 11.40234375 C-9.8125 11.375 -9.8125 11.375 -11.8125 10.375 C-12.75 8.125 -12.75 8.125 -12.8125 5.375 C-9.05850843 0.4232368 -5.94330276 -0.32428181 0 0 Z " fill="#FEFEFE" transform="translate(193.8125,107.625)"/>
<path d="M0 0 C10.56 0 21.12 0 32 0 C32 25.41 32 50.82 32 77 C21.44 77 10.88 77 0 77 C0 51.59 0 26.18 0 0 Z " fill="#FEFEFE" transform="translate(269,312)"/>
<path d="M0 0 C8.25 0 16.5 0 25 0 C20.43876558 18.24493769 13.74556136 34.7281693 -2.75 45.1875 C-15.18552167 52.27726388 -28.93415908 55.26200788 -43 51.6953125 C-47.78643021 50.03128012 -51.80281208 46.88229962 -55 43 C-57.16578318 38.35903604 -57.28367931 34.95133449 -56 30 C-54.10888889 27.6818638 -52.66171969 26.33085985 -50 25 C-45.52115404 24.58778763 -41.3688667 24.49411448 -37.125 26.0625 C-32.10823645 30.63660794 -30.53309232 35.46961903 -30 42 C-23.27050723 41.82864717 -18.04953663 40.64386561 -13 36 C-4.79924136 25.488635 -2.3444047 12.77700561 0 0 Z " fill="#FEFEFE" transform="translate(209,312)"/>
<path d="M0 0 C8.58 0 17.16 0 26 0 C26 13.86 26 27.72 26 42 C17.42 42 8.84 42 0 42 C0 28.14 0 14.28 0 0 Z " fill="#FEFEFE" transform="translate(210,234)"/>
<path d="M0 0 C3.46716366 2.09338183 5.44084839 3.28526839 6.703125 7.15625 C7.28312847 10.93888133 7.29100047 13.33069891 5.75 16.875 C5.1725 17.57625 4.595 18.2775 4 19 C3.608125 19.5775 3.21625 20.155 2.8125 20.75 C-0.18954984 22.8203792 -3.44536719 23.1144484 -7 23 C-11.0954966 21.53180311 -14.10584289 19.99877613 -16 16 C-16.57317372 11.75692229 -16.42565858 8.15178203 -14.9375 4.125 C-10.78683755 -0.42733946 -5.82240521 -1.98209539 0 0 Z M-10.9375 5.125 C-13.18785503 7.8337336 -13.18785503 7.8337336 -13.5625 11 C-12.84202557 14.8425303 -11.99097304 16.45767292 -9 19 C-6.20014623 19.6598016 -3.80534591 19.61636963 -1 19 C2.06458538 16.95694308 2.82153128 15.55920198 3.9375 12.0625 C4.01221891 8.40127319 3.21363944 6.8695326 1 4 C-3.3980583 1.80097085 -7.04426221 2.30861522 -10.9375 5.125 Z " fill="#FDFDFD" transform="translate(179,283)"/>
<path d="M0 0 C2.9375 2.5625 2.9375 2.5625 5 5 C4.67 5.66 4.34 6.32 4 7 C2 6 0 5 -2 4 C-6.63893485 3.56212639 -6.63893485 3.56212639 -10.875 5.125 C-12.46117551 7.76862586 -12.81225297 9.93346518 -13 13 C-12.03394425 15.74954328 -11.61984486 16.69007757 -9 18 C-3.63036713 18.58184185 -3.63036713 18.58184185 1 16.5 C1.33 16.005 1.66 15.51 2 15 C2.99 15.33 3.98 15.66 5 16 C3.97467587 18.97343996 3.00202083 19.99860466 0.375 21.8125 C-3.81778111 23.2877378 -6.78110157 23.38893775 -11 22 C-14.02528551 19.94023114 -15.56105781 18.40203299 -16.6640625 14.87890625 C-17.37700983 10.7340262 -17.23167593 8.50042001 -15.4375 4.625 C-10.72634455 -0.44855202 -6.74923085 -1.96341261 0 0 Z " fill="#FDFDFD" transform="translate(336,283)"/>
<path d="M0 0 C0.99 0 1.98 0 3 0 C3 2.97 3 5.94 3 9 C6.63 9 10.26 9 14 9 C14 6.03 14 3.06 14 0 C14.99 0 15.98 0 17 0 C17 7.26 17 14.52 17 22 C16.01 22 15.02 22 14 22 C14 19.03 14 16.06 14 13 C10.37 13 6.74 13 3 13 C3 15.97 3 18.94 3 22 C2.01 22 1.02 22 0 22 C0 14.74 0 7.48 0 0 Z " fill="#FCFCFC" transform="translate(345,283)"/>
<path d="M0 0 C0.99 0 1.98 0 3 0 C3 2.97 3 5.94 3 9 C6.63 9 10.26 9 14 9 C14 6.03 14 3.06 14 0 C14.99 0 15.98 0 17 0 C17 7.26 17 14.52 17 22 C16.01 22 15.02 22 14 22 C14 19.03 14 16.06 14 13 C10.37 13 6.74 13 3 13 C3 15.97 3 18.94 3 22 C2.01 22 1.02 22 0 22 C0 14.74 0 7.48 0 0 Z " fill="#FCFCFC" transform="translate(207,283)"/>
<path d="M0 0 C4.29 0 8.58 0 13 0 C13 0.99 13 1.98 13 3 C9.7 3 6.4 3 3 3 C3 4.98 3 6.96 3 9 C5.97 9 8.94 9 12 9 C12 10.32 12 11.64 12 13 C9.03 13 6.06 13 3 13 C3 14.98 3 16.96 3 19 C6.3 19 9.6 19 13 19 C13 19.99 13 20.98 13 22 C8.71 22 4.42 22 0 22 C0 14.74 0 7.48 0 0 Z " fill="#FCFCFC" transform="translate(238,283)"/>
<path d="M0 0 C4.29 0 8.58 0 13 0 C12.67 0.99 12.34 1.98 12 3 C9.03 3 6.06 3 3 3 C3 4.98 3 6.96 3 9 C5.64 9 8.28 9 11 9 C11 10.32 11 11.64 11 13 C8.36 13 5.72 13 3 13 C3 14.98 3 16.96 3 19 C6.3 19 9.6 19 13 19 C13 19.99 13 20.98 13 22 C8.71 22 4.42 22 0 22 C0 14.74 0 7.48 0 0 Z " fill="#FCFCFC" transform="translate(303,283)"/>
<path d="M0 0 C0 0.99 0 1.98 0 3 C-2.64 2.67 -5.28 2.34 -8 2 C-7.42557356 4.44278263 -7.42557356 4.44278263 -6 7 C-3.04990627 8.72512465 -3.04990627 8.72512465 0 10 C2 12 2 12 2.3125 14.9375 C2 18 2 18 0.875 19.8125 C-1.806162 21.51056927 -3.83285993 21.8733144 -7 22 C-9.8125 20.75 -9.8125 20.75 -12 19 C-12.33 18.01 -12.66 17.02 -13 16 C-11.68 15.67 -10.36 15.34 -9 15 C-8.67 15.66 -8.34 16.32 -8 17 C-6.02 17 -4.04 17 -2 17 C-2.19868331 15.06933907 -2.19868331 15.06933907 -3 13 C-4.81403873 11.62211873 -4.81403873 11.62211873 -7 10.5625 C-10.85922385 8.30378012 -10.85922385 8.30378012 -12.1875 5.4375 C-11.95143609 2.36866922 -11.1623821 1.1623821 -9 -1 C-5.23375329 -2.25541557 -3.62811066 -1.37061958 0 0 Z " fill="#FDFDFD" transform="translate(272,284)"/>
<path d="M0 0 C0 0.99 0 1.98 0 3 C-2.64 3 -5.28 3 -8 3 C-7.96044102 4.92309422 -7.96044102 4.92309422 -7 7 C-4.08333333 8.66666667 -4.08333333 8.66666667 -1 10 C1 12 1 12 1.3125 14.9375 C1 18 1 18 -0.125 19.8125 C-2.75961227 21.48108777 -4.90103365 21.81026737 -8 22 C-10.3125 21.3125 -10.3125 21.3125 -12 20 C-12.75 17.875 -12.75 17.875 -13 16 C-12.01 15.67 -11.02 15.34 -10 15 C-9.67 15.66 -9.34 16.32 -9 17 C-7.02 17 -5.04 17 -3 17 C-3.19244736 15.06325241 -3.19244736 15.06325241 -4 13 C-5.85491986 11.69508463 -5.85491986 11.69508463 -8.0625 10.6875 C-10.234375 9.42578125 -10.234375 9.42578125 -12 8 C-12.8125 4.375 -12.8125 4.375 -12 1 C-7.99882754 -3.00117246 -4.96731585 -1.85056865 0 0 Z " fill="#FDFDFD" transform="translate(202,284)"/>
<path d="M0 0 C5.28 0 10.56 0 16 0 C16 0.99 16 1.98 16 3 C14.02 3 12.04 3 10 3 C10 9.27 10 15.54 10 22 C8.68 22 7.36 22 6 22 C6 15.73 6 9.46 6 3 C4.02 3 2.04 3 0 3 C0 2.01 0 1.02 0 0 Z " fill="#FDFDFD" transform="translate(284,283)"/>
<path d="M0 0 C3.63 0 7.26 0 11 0 C11.0538854 3.10439786 11.09361739 6.20786307 11.125 9.3125 C11.14175781 10.19357422 11.15851563 11.07464844 11.17578125 11.98242188 C11.18222656 12.82998047 11.18867188 13.67753906 11.1953125 14.55078125 C11.20578613 15.33106689 11.21625977 16.11135254 11.22705078 16.9152832 C11 19 11 19 9 22 C6.125 22.9375 6.125 22.9375 3 23 C0.625 21.1875 0.625 21.1875 -1 19 C-1 18.34 -1 17.68 -1 17 C1.64 17.33 4.28 17.66 7 18 C7.33 13.05 7.66 8.1 8 3 C5.36 3 2.72 3 0 3 C0 2.01 0 1.02 0 0 Z " fill="#FDFDFD" transform="translate(148,283)"/>
<path d="M0 0 C0.99 0 1.98 0 3 0 C3 7.26 3 14.52 3 22 C2.01 22 1.02 22 0 22 C0 14.74 0 7.48 0 0 Z " fill="#FDFDFD" transform="translate(230,283)"/>
<path d="M0 0 C1.32 0 2.64 0 4 0 C3.01 3.3 2.02 6.6 1 10 C0.01 10 -0.98 10 -2 10 C-1.34 6.7 -0.68 3.4 0 0 Z " fill="#FCFCFC" transform="translate(256,282)"/>
</svg>
