<?xml version="1.0" encoding="UTF-8"?>
<svg version="1.1" xmlns="http://www.w3.org/2000/svg" width="500" height="500">
<path d="M0 0 C44.55 0 89.1 0 135 0 C135 9.9 135 19.8 135 30 C117.84 30 100.68 30 83 30 C83 46.83 83 63.66 83 81 C72.44 81 61.88 81 51 81 C51 64.17 51 47.34 51 30 C34.17 30 17.34 30 0 30 C0 20.1 0 10.2 0 0 Z " fill="#000000" transform="translate(218,195)"/>
<path d="M0 0 C0.72574219 0.00515625 1.45148438 0.0103125 2.19921875 0.015625 C6.36351424 0.07500889 10.36484906 0.46495894 14.49511719 1.02734375 C19.39657433 1.51133345 24.32971149 1.39246848 29.25 1.375 C30.88388672 1.38080078 30.88388672 1.38080078 32.55078125 1.38671875 C38.39485521 1.37965216 43.96603642 1.04399711 49.75 0.25 C52.31036055 0.11619221 54.87384031 0.03161759 57.4375 0 C59.33048828 -0.03867188 59.33048828 -0.03867188 61.26171875 -0.078125 C64.97831286 0.27147624 66.86098555 0.91593748 69.75 3.25 C70.25 6.3125 70.25 6.3125 69.75 9.25 C66.36685558 11.50542961 65.41996784 11.42519409 61.5 11.25 C56.85114923 11.19472965 53.03914774 11.23672657 48.75 13.25 C42.31785065 21.42056809 42.4547709 32.61325838 42.3359375 42.60546875 C42.31657135 43.63311844 42.2972052 44.66076813 42.2772522 45.71955872 C42.21811165 48.9587916 42.17133631 52.1980613 42.125 55.4375 C42.08675976 57.65170706 42.04770465 59.86590021 42.0078125 62.08007812 C41.91095177 67.46997414 41.83086445 72.85974608 41.75 78.25 C33.17 78.25 24.59 78.25 15.75 78.25 C15.70101562 75.30835938 15.65203125 72.36671875 15.6015625 69.3359375 C15.54732297 66.43973344 15.49010649 63.54360211 15.43261719 60.64746094 C15.39468463 58.6576088 15.35977449 56.66769637 15.328125 54.67773438 C15.55423313 34.34284495 15.55423313 34.34284495 9.75 15.25 C9.75 14.59 9.75 13.93 9.75 13.25 C5.15459127 11.78618834 0.28658376 11.94015161 -4.49414062 11.8203125 C-9.76489562 11.5854042 -9.76489562 11.5854042 -12.25 9.8671875 C-13.25 8.25 -13.25 8.25 -13.1875 5.75 C-10.8561956 -0.46681173 -5.87551943 -0.16349271 0 0 Z " fill="#000000" transform="translate(194.25,107.75)"/>
<path d="M0 0 C10.56 0 21.12 0 32 0 C32 25.41 32 50.82 32 77 C21.44 77 10.88 77 0 77 C0 51.59 0 26.18 0 0 Z " fill="#000000" transform="translate(269,312)"/>
<path d="M0 0 C8.25 0 16.5 0 25 0 C21.22394018 18.38776956 14.07569115 33.17605691 -1.23046875 44.67578125 C-3.11292094 45.91011644 -4.99216944 46.98528993 -7 48 C-8.093125 48.556875 -9.18625 49.11375 -10.3125 49.6875 C-21.19120468 53.55958133 -33.58968132 54.884802 -44.671875 51.11328125 C-49.66945423 48.72349923 -53.58091954 45.21376552 -56.5625 40.5625 C-57.19132503 36.87938194 -57.06027473 33.59440652 -56 30 C-53.53990088 26.90503659 -51.58497411 25.18128789 -47.609375 24.7265625 C-38.93071023 24.41830392 -38.93071023 24.41830392 -35.5 27 C-31.57014024 31.71583171 -30 35.87082454 -30 42 C-23.14706856 41.38273228 -17.81226763 40.31226763 -12.84375 35.34375 C-4.49009999 24.72470338 -2.34849966 12.96371814 0 0 Z " fill="#000000" transform="translate(209,312)"/>
<path d="M0 0 C8.58 0 17.16 0 26 0 C26 13.86 26 27.72 26 42 C17.42 42 8.84 42 0 42 C0 28.14 0 14.28 0 0 Z " fill="#000000" transform="translate(210,234)"/>
<path d="M0 0 C2.3992664 2.46781687 3.4093099 3.90378258 4.1875 7.25 C4.10935239 11.54811881 3.38613893 13.91479681 1.1875 17.625 C-2.23056132 20.61580365 -4.15368908 21.28082297 -8.59765625 21.48046875 C-12.24357279 21.10108766 -14.16300576 19.71024465 -16.8125 17.25 C-19.19871552 13.78613876 -19.82399219 11.90505456 -19.75 7.6875 C-18.47084638 2.99727007 -16.69564436 0.36970746 -12.5 -2.125 C-7.72383764 -3.23573543 -4.14832453 -2.58117971 0 0 Z M-15.8125 6.25 C-16.43741523 10.20779649 -16.42256839 12.25863886 -14.3125 15.6875 C-10.78691116 17.89099302 -7.86235528 18.04669284 -3.8125 17.25 C-1.14583333 15.91666667 -1.14583333 15.91666667 0.1875 13.25 C0.79193392 10.44082139 0.84790854 8.05242927 0.1875 5.25 C-2.35482708 2.25902696 -3.9699697 1.40797443 -7.8125 0.6875 C-11.94857554 1.46301416 -13.36249553 2.86322911 -15.8125 6.25 Z " fill="#020202" transform="translate(182.8125,282.75)"/>
<path d="M0 0 C1.32 0 2.64 0 4 0 C4 2.97 4 5.94 4 9 C7.63 9 11.26 9 15 9 C15 6.03 15 3.06 15 0 C15.99 0 16.98 0 18 0 C18 7.26 18 14.52 18 22 C17.01 22 16.02 22 15 22 C15 19.03 15 16.06 15 13 C11.37 13 7.74 13 4 13 C4 15.97 4 18.94 4 22 C2.68 22 1.36 22 0 22 C0 14.74 0 7.48 0 0 Z " fill="#010101" transform="translate(207,281)"/>
<path d="M0 0 C2.9375 2.5625 2.9375 2.5625 5 5 C4.67 5.66 4.34 6.32 4 7 C3.01 7 2.02 7 1 7 C0.5875 6.505 0.175 6.01 -0.25 5.5 C-2.99689429 3.14551918 -5.51494946 3.75106782 -9 4 C-9.99 4.33 -10.98 4.66 -12 5 C-13.02411727 10.28182668 -13.02411727 10.28182668 -12.1875 15.4375 C-11.06705694 17.15043305 -11.06705694 17.15043305 -9 18 C-4.05312036 18.36643553 -1.80260198 18.12356591 2 15 C2.99 15.33 3.98 15.66 5 16 C3.57891465 18.84217071 2.53081292 20.66634616 -0.1875 22.375 C-4.01300988 23.22511331 -7.24920701 23.19722281 -11 22 C-13.64233769 19.80742191 -15.46669809 18.06660382 -17 15 C-17.26928623 10.89338495 -17.39058642 8.03390522 -15.9375 4.1875 C-11.50675377 -0.81495542 -6.26658887 -1.85676707 0 0 Z " fill="#010101" transform="translate(337,281)"/>
<path d="M0 0 C0.99 0 1.98 0 3 0 C3 2.97 3 5.94 3 9 C6.96 9 10.92 9 15 9 C15 6.03 15 3.06 15 0 C15.99 0 16.98 0 18 0 C18 7.26 18 14.52 18 22 C17.01 22 16.02 22 15 22 C15 19.03 15 16.06 15 13 C11.04 13 7.08 13 3 13 C3 15.97 3 18.94 3 22 C2.01 22 1.02 22 0 22 C0 14.74 0 7.48 0 0 Z " fill="#020202" transform="translate(345,281)"/>
<path d="M0 0 C0.33 1.32 0.66 2.64 1 4 C-1.64 4 -4.28 4 -7 4 C-7 4.99 -7 5.98 -7 7 C-6.04287109 7.43699219 -6.04287109 7.43699219 -5.06640625 7.8828125 C1.63722026 11.20848057 1.63722026 11.20848057 3.375 15 C3 18 3 18 1 20.9375 C-2 23 -2 23 -5.625 23 C-8.77795399 22.06579141 -10.08768431 21.58725064 -12 19 C-11.505 17.515 -11.505 17.515 -11 16 C-10.443125 16.33 -9.88625 16.66 -9.3125 17 C-6.69715478 18.1309601 -4.8193354 18.15662974 -2 18 C-2.19244736 16.06325241 -2.19244736 16.06325241 -3 14 C-4.85491986 12.69508463 -4.85491986 12.69508463 -7.0625 11.6875 C-9.234375 10.42578125 -9.234375 10.42578125 -11 9 C-11.8125 5.375 -11.8125 5.375 -11 2 C-7.3619283 -1.42406748 -4.67744861 -1.19655662 0 0 Z " fill="#020202" transform="translate(272,281)"/>
<path d="M0 0 C0.66 0.99 1.32 1.98 2 3 C1.01 3.66 0.02 4.32 -1 5 C-4.1875 4.125 -4.1875 4.125 -7 3 C-6.80244943 4.93618141 -6.80244943 4.93618141 -6 7 C-4.18051618 8.30614256 -4.18051618 8.30614256 -2 9.3125 C1.38654703 11.28951124 1.87987985 11.67395959 3.3125 15.5625 C3 19 3 19 1 21.5 C-2.87083121 23.4354156 -4.87227134 23.14659129 -9 22 C-10.9375 20.5625 -10.9375 20.5625 -12 19 C-12 18.34 -12 17.68 -12 17 C-11.01 16.67 -10.02 16.34 -9 16 C-8.34 16.66 -7.68 17.32 -7 18 C-4.41645782 18.16687448 -4.41645782 18.16687448 -2 18 C-1.67 17.34 -1.34 16.68 -1 16 C-2.96021144 13.71308666 -4.25552453 12.89779019 -7.125 11.75 C-10 10 -10 10 -11 6.5 C-11 3 -11 3 -9 0 C-5.46474216 -1.17841928 -3.5797952 -0.91399027 0 0 Z " fill="#010101" transform="translate(201,281)"/>
<path d="M0 0 C4.29 0 8.58 0 13 0 C13 0.99 13 1.98 13 3 C10.03 3 7.06 3 4 3 C4 4.98 4 6.96 4 9 C5.98 9 7.96 9 10 9 C9.67 10.32 9.34 11.64 9 13 C7.35 13 5.7 13 4 13 C4 14.98 4 16.96 4 19 C6.97 19 9.94 19 13 19 C13 19.99 13 20.98 13 22 C8.71 22 4.42 22 0 22 C0 14.74 0 7.48 0 0 Z " fill="#010101" transform="translate(303,281)"/>
<path d="M0 0 C4.29 0 8.58 0 13 0 C12.67 0.99 12.34 1.98 12 3 C9.03 3 6.06 3 3 3 C3 4.98 3 6.96 3 9 C5.31 9 7.62 9 10 9 C10.33 10.32 10.66 11.64 11 13 C8.36 13 5.72 13 3 13 C3 14.98 3 16.96 3 19 C5.97 19 8.94 19 12 19 C12.33 19.99 12.66 20.98 13 22 C8.71 22 4.42 22 0 22 C0 14.74 0 7.48 0 0 Z " fill="#020202" transform="translate(239,281)"/>
<path d="M0 0 C3.63 0 7.26 0 11 0 C11.05401695 2.91691525 11.09368066 5.83282724 11.125 8.75 C11.15013672 9.9875 11.15013672 9.9875 11.17578125 11.25 C11.18222656 12.04921875 11.18867188 12.8484375 11.1953125 13.671875 C11.20578613 14.4050293 11.21625977 15.13818359 11.22705078 15.89355469 C10.96084103 18.36329423 10.35663053 19.92221623 9 22 C6.125 22.9375 6.125 22.9375 3 23 C0.625 21.75 0.625 21.75 -1 20 C-1 19.01 -1 18.02 -1 17 C3 18 3 18 7 19 C7 13.72 7 8.44 7 3 C4.69 3 2.38 3 0 3 C0 2.01 0 1.02 0 0 Z " fill="#010101" transform="translate(149,281)"/>
<path d="M0 0 C5.28 0 10.56 0 16 0 C15.67 0.99 15.34 1.98 15 3 C13.02 3 11.04 3 9 3 C9 9.27 9 15.54 9 22 C8.01 22 7.02 22 6 22 C6 15.73 6 9.46 6 3 C4.02 3 2.04 3 0 3 C0 2.01 0 1.02 0 0 Z " fill="#030303" transform="translate(285,281)"/>
<path d="M0 0 C0.99 0 1.98 0 3 0 C3 7.26 3 14.52 3 22 C2.01 22 1.02 22 0 22 C0 14.74 0 7.48 0 0 Z " fill="#020202" transform="translate(230,281)"/>
<path d="M0 0 C1.32 0 2.64 0 4 0 C3.01 3.3 2.02 6.6 1 10 C0.01 10 -0.98 10 -2 10 C-1.54177532 6.53058454 -1.10868317 3.32604951 0 0 Z " fill="#030303" transform="translate(257,280)"/>
</svg>
