<?xml version="1.0" standalone="no"?>
<!DOCTYPE svg PUBLIC "-//W3C//DTD SVG 20010904//EN"
 "http://www.w3.org/TR/2001/REC-SVG-20010904/DTD/svg10.dtd">
<svg version="1.0" xmlns="http://www.w3.org/2000/svg"
 width="500.000000pt" height="500.000000pt" viewBox="0 0 500.000000 500.000000"
 preserveAspectRatio="xMidYMid meet">

<g transform="translate(0.000000,500.000000) scale(0.100000,-0.100000)"
fill="#000000" stroke="none">
<path d="M1863 3895 c-34 -14 -45 -47 -21 -61 6 -4 50 -11 97 -14 79 -7 87 -9
111 -38 54 -65 61 -107 61 -363 -1 -129 3 -241 9 -249 12 -19 185 -26 206 -9
11 9 14 57 14 228 0 226 10 299 46 361 31 54 61 69 142 73 78 4 98 14 88 45
-13 39 -57 47 -195 32 -209 -22 -234 -22 -361 -6 -146 19 -156 19 -197 1z"/>
<path d="M2200 3030 c-7 -4 -10 -51 -8 -136 l3 -129 250 -5 250 -5 3 -244 c1
-163 6 -249 14 -258 8 -10 42 -13 147 -11 l136 3 5 255 c3 140 7 256 8 257 1
2 113 4 250 5 l247 3 3 124 c2 77 -1 128 -8 135 -11 11 -1281 18 -1300 6z"/>
<path d="M2142 2653 l-32 -4 2 -202 3 -202 118 -3 117 -3 0 205 c0 177 -2 205
-16 210 -17 6 -136 6 -192 -1z"/>
<path d="M2392 2083 l3 -108 58 -3 c35 -2 57 1 57 8 0 5 -22 10 -50 10 l-50 0
0 38 c0 36 3 39 38 49 l37 10 -37 2 c-37 1 -38 2 -38 41 0 29 4 40 15 40 8 0
15 5 15 10 0 6 -11 10 -25 10 l-26 0 3 -107z"/>
<path d="M2644 2180 c-24 -9 -34 -36 -25 -64 4 -10 27 -28 51 -40 28 -14 47
-31 51 -47 7 -22 7 -23 8 -2 1 22 -41 63 -64 63 -6 0 -17 10 -22 23 -12 27 0
57 22 57 8 0 15 5 15 10 0 12 -7 12 -36 0z"/>
<path d="M2571 2157 c-16 -41 -13 -57 5 -24 8 16 13 34 11 40 -3 7 -10 -1 -16
-16z"/>
<path d="M3046 2172 c-2 -4 -3 -28 -1 -52 2 -25 4 -66 4 -92 1 -27 4 -48 9
-48 4 0 6 42 4 94 -2 83 0 95 15 99 14 4 13 5 -4 6 -12 0 -24 -3 -27 -7z"/>
<path d="M3605 2139 c-4 -12 -2 -26 4 -32 8 -8 11 -2 11 21 0 37 -6 41 -15 11z"/>
<path d="M2229 2119 c-6 -45 4 -161 12 -134 3 11 3 54 0 95 -5 57 -8 67 -12
39z"/>
<path d="M3467 2106 c-10 -26 -8 -106 2 -106 11 0 20 79 11 104 -6 18 -7 18
-13 2z"/>
<path d="M3523 2083 c9 -2 25 -2 35 0 9 3 1 5 -18 5 -19 0 -27 -2 -17 -5z"/>
<path d="M3591 2083 c0 -4 7 -24 14 -43 l14 -35 -2 39 c-1 22 -8 41 -14 44 -7
2 -13 0 -12 -5z"/>
<path d="M2311 2031 c-1 -36 2 -52 9 -45 6 6 6 26 1 54 l-9 45 -1 -54z"/>
<path d="M3221 2039 c-1 -17 29 -49 45 -49 5 0 1 5 -9 11 -10 6 -22 20 -27 32
-6 15 -9 17 -9 6z"/>
<path d="M2081 2004 c0 -11 3 -14 6 -6 3 7 2 16 -1 19 -3 4 -6 -2 -5 -13z"/>
<path d="M2612 2008 c8 -22 53 -42 74 -33 17 8 16 9 -8 12 -14 3 -32 11 -38
19 -15 17 -33 19 -28 2z"/>
<path d="M3100 1980 c-12 -8 -9 -10 13 -10 15 0 27 5 27 10 0 13 -20 13 -40 0z"/>
<path d="M2095 1833 c-33 -193 -97 -313 -193 -362 -60 -31 -122 -27 -122 8 -1
35 -40 101 -72 121 -101 62 -209 -18 -162 -121 38 -85 130 -125 268 -116 149
9 266 69 362 186 70 84 126 199 132 268 l4 53 -105 0 -106 0 -6 -37z"/>
<path d="M2702 1498 l3 -373 148 -3 147 -3 0 376 0 375 -150 0 -150 0 2 -372z"/>
</g>
</svg>
